<?xml version="1.0" encoding="UTF-8"?>
<svg width="11px" height="15px" viewBox="0 0 11 15" version="1.1" xmlns="http://www.w3.org/2000/svg" xmlns:xlink="http://www.w3.org/1999/xlink">
    <title>􀎡@2x</title>
    <g id="Web" stroke="none" stroke-width="1" fill="none" fill-rule="evenodd">
        <g id="Sign-up" transform="translate(-968.000000, -621.000000)" fill="#344356" fill-rule="nonzero">
            <path d="M976.671875,635.726562 C977.161458,635.726562 977.526042,635.601562 977.765625,635.351562 C978.005208,635.101562 978.125,634.713542 978.125,634.1875 L978.125,628.703125 C978.125,628.177083 978.005208,627.789062 977.765625,627.539062 C977.585938,627.351562 977.335938,627.234375 977.015625,627.1875 L976.921,627.178 L976.921875,625.335938 C976.921875,624.638021 976.817708,624.029948 976.609375,623.511719 C976.401042,622.99349 976.115885,622.5625 975.753906,622.21875 C975.391927,621.875 974.984375,621.617188 974.53125,621.445312 C974.078125,621.273438 973.609375,621.1875 973.125,621.1875 C972.635417,621.1875 972.164062,621.273438 971.710938,621.445312 C971.257812,621.617188 970.851562,621.875 970.492188,622.21875 C970.132812,622.5625 969.847656,622.99349 969.636719,623.511719 C969.425781,624.029948 969.320312,624.638021 969.320312,625.335938 L969.32,627.209 L969.19574,627.231873 C968.937968,627.289856 968.720378,627.396159 968.542969,627.550781 C968.259115,627.798177 968.117188,628.182292 968.117188,628.703125 L968.117188,634.1875 C968.117188,634.713542 968.238281,635.101562 968.480469,635.351562 C968.722656,635.601562 969.085938,635.726562 969.570312,635.726562 L976.671875,635.726562 Z M970.632,627.178 L970.632812,625.1875 C970.632812,624.59375 970.747396,624.092448 970.976562,623.683594 C971.205729,623.27474 971.509115,622.966146 971.886719,622.757812 C972.264323,622.549479 972.677083,622.445312 973.125,622.445312 C973.572917,622.445312 973.985677,622.549479 974.363281,622.757812 C974.740885,622.966146 975.042969,623.27474 975.269531,623.683594 C975.496094,624.092448 975.609375,624.59375 975.609375,625.1875 L975.609,627.167 L970.632,627.178 Z" id="􀎡"></path>
        </g>
    </g>
</svg>