<?xml version="1.0" encoding="UTF-8"?>
<svg width="16px" height="15px" viewBox="0 0 16 15" version="1.1" xmlns="http://www.w3.org/2000/svg" xmlns:xlink="http://www.w3.org/1999/xlink">
    <title>􀎥@2x</title>
    <g id="Web" stroke="none" stroke-width="1" fill="none" fill-rule="evenodd">
        <g id="Sign-up-Filling" transform="translate(-967.000000, -621.000000)" fill="#344356" fill-rule="nonzero">
            <path d="M975.554688,635.539062 C976.044271,635.539062 976.408854,635.414062 976.648438,635.164062 C976.888021,634.914062 977.007812,634.526042 977.007812,634 L977.007812,628.515625 C977.007812,627.989583 976.888021,627.601562 976.648438,627.351562 C976.46875,627.164062 976.21875,627.046875 975.898438,627 L975.882187,626.9985 L975.882812,625 C975.882812,624.40625 975.996094,623.904948 976.222656,623.496094 C976.449219,623.08724 976.751302,622.778646 977.128906,622.570312 C977.50651,622.361979 977.919271,622.257812 978.367188,622.257812 C978.815104,622.257812 979.227865,622.361979 979.605469,622.570312 C979.983073,622.778646 980.286458,623.08724 980.515625,623.496094 C980.744792,623.904948 980.859375,624.40625 980.859375,625 L980.859375,626.609375 C980.859375,626.848958 980.921875,627.03125 981.046875,627.15625 C981.171875,627.28125 981.330729,627.34375 981.523438,627.34375 C981.700521,627.34375 981.852865,627.283854 981.980469,627.164062 C982.108073,627.044271 982.171875,626.859375 982.171875,626.609375 L982.171875,625.148438 C982.171875,624.450521 982.066406,623.842448 981.855469,623.324219 C981.644531,622.80599 981.359375,622.375 981,622.03125 C980.640625,621.6875 980.234375,621.429688 979.78125,621.257812 C979.328125,621.085938 978.856771,621 978.367188,621 C977.882812,621 977.414062,621.085938 976.960938,621.257812 C976.507812,621.429688 976.10026,621.6875 975.738281,622.03125 C975.376302,622.375 975.091146,622.80599 974.882812,623.324219 C974.674479,623.842448 974.570312,624.450521 974.570312,625.148438 L974.570187,626.9795 L968.585938,626.992188 C968.096354,626.992188 967.709635,627.115885 967.425781,627.363281 C967.141927,627.610677 967,627.994792 967,628.515625 L967,634 C967,634.526042 967.121094,634.914062 967.363281,635.164062 C967.605469,635.414062 967.96875,635.539062 968.453125,635.539062 L975.554688,635.539062 Z" id="􀎥"></path>
        </g>
    </g>
</svg>